<svg xmlns="http://www.w3.org/2000/svg" viewBox="0 0 493.77 158.66"><defs><style>.cls-1{fill:#442c0c;}</style></defs><g id="Layer_2" data-name="Layer 2"><g id="Layer_1-2" data-name="Layer 1"><path class="cls-1" d="M53.7,52.52h.59v.74H37.63v-.74h.66a2.8,2.8,0,0,0,2.34-1,3.15,3.15,0,0,0,.78-1.89,5.54,5.54,0,0,0-.3-1.78L36.37,35.26h-20l-5,12.66a5.49,5.49,0,0,0-.3,1.74,3.12,3.12,0,0,0,.78,1.86,2.78,2.78,0,0,0,2.33,1h.67v.74H0v-.74H.67A6.51,6.51,0,0,0,4.3,51.33a8.52,8.52,0,0,0,2.88-3.48L23.92,8Q26.67,2,26.67.37h.66L47.18,47.85A8,8,0,0,0,50,51.33,6.58,6.58,0,0,0,53.7,52.52ZM17.26,33H35.48L26.59,9.26Z"/><path class="cls-1" d="M120.07,2.15h-1.19a4,4,0,0,0-2.7,1A3.36,3.36,0,0,0,115,5.63V35q0,8.67-5.48,14T94.89,54.29q-9.12,0-14.78-5.29T74.44,35V5.85a3.45,3.45,0,0,0-1.92-3.26,4.52,4.52,0,0,0-2-.44H69.33V1.41h15v.74H83.18a3.94,3.94,0,0,0-2.74,1A3.48,3.48,0,0,0,79.26,5.7V34q0,8.07,4.33,13a14.64,14.64,0,0,0,11.59,5A15.58,15.58,0,0,0,107,47.29q4.52-4.69,4.52-12.33V5.7a3.52,3.52,0,0,0-1.19-2.55,3.92,3.92,0,0,0-2.74-1h-1.18V1.41h13.7Z"/><path class="cls-1" d="M149.29,46.81q-7.36-7.39-7.37-19.48t7.37-19.52Q156.65.37,168.51.37a32.34,32.34,0,0,1,18,5L188,15.85h-.66A16.49,16.49,0,0,0,180.77,6a20.84,20.84,0,0,0-12.26-3.45,19,19,0,0,0-15.22,6.82q-5.82,6.81-5.81,17.92t5.81,17.89a19.31,19.31,0,0,0,15.22,6.85,24.91,24.91,0,0,0,9.15-1.7,23.88,23.88,0,0,0,7.59-4.74V32.52a3,3,0,0,0-1-2.48,4.15,4.15,0,0,0-2.78-.86h-1.18v-.74h14.52v.74H193.7a4.12,4.12,0,0,0-2.82.86,2.93,2.93,0,0,0-.89,2.48V44.74a23.43,23.43,0,0,1-4.59,4.52,26,26,0,0,1-7.15,3.52,30.23,30.23,0,0,1-9.74,1.51Q156.66,54.22,149.29,46.81Z"/><path class="cls-1" d="M265.84,2.15h-1.18a4,4,0,0,0-2.71,1,3.4,3.4,0,0,0-1.22,2.48V35q0,8.67-5.48,14t-14.59,5.33q-9.12,0-14.78-5.29t-5.67-14V5.85a3.45,3.45,0,0,0-1.92-3.26,4.52,4.52,0,0,0-2-.44H215.1V1.41h15v.74H229a3.94,3.94,0,0,0-2.74,1A3.51,3.51,0,0,0,225,5.7V34q0,8.07,4.33,13A14.64,14.64,0,0,0,241,52a15.58,15.58,0,0,0,11.78-4.71q4.52-4.69,4.52-12.33V5.7a3.52,3.52,0,0,0-1.19-2.55,3.92,3.92,0,0,0-2.74-1h-1.18V1.41h13.7Z"/><path class="cls-1" d="M288.88,50.22a22.59,22.59,0,0,1-.23-4,20,20,0,0,1,1.11-6.3h.67c-.05.55-.07,1.09-.07,1.63a10.7,10.7,0,0,0,2.74,7.52,9.34,9.34,0,0,0,7.26,3A10.77,10.77,0,0,0,308,49.26a9.31,9.31,0,0,0,3-7.08,9,9,0,0,0-2.89-6.92L293.91,22.07a11.78,11.78,0,0,1-4-9,12.64,12.64,0,0,1,3.52-9A12.46,12.46,0,0,1,303,.37a31.9,31.9,0,0,1,6.37.74h2.89v9.11h-.67a6.93,6.93,0,0,0-2.41-5.55A9.08,9.08,0,0,0,303,2.59a8.65,8.65,0,0,0-6.33,2.52,8.47,8.47,0,0,0-2.56,6.3,8.59,8.59,0,0,0,3,6.51l14.59,13.49q3.7,3.4,3.71,9.33a13.25,13.25,0,0,1-3.78,9.74,13.56,13.56,0,0,1-10.07,3.81,26.24,26.24,0,0,1-6.93-1A12,12,0,0,1,288.88,50.22Z"/><path class="cls-1" d="M378,8a4.24,4.24,0,0,0-1.26-3.07,4.25,4.25,0,0,0-3-1.38H359.69V47.92a4.64,4.64,0,0,0,1.44,3.26,4.55,4.55,0,0,0,3.3,1.34h1v.74H349.17v-.74h1A4.75,4.75,0,0,0,354.87,48V3.55H340.8a4.19,4.19,0,0,0-3,1.38A4.28,4.28,0,0,0,336.58,8V9.26l-.74.07V0a20.39,20.39,0,0,0,3.85.89,32.22,32.22,0,0,0,5,.44h25a27.58,27.58,0,0,0,6-.55A24.36,24.36,0,0,0,378.72,0V9.33L378,9.26Z"/><path class="cls-1" d="M400.35,52.52a4.53,4.53,0,0,0,3.3-1.37,4.81,4.81,0,0,0,1.44-3.3V6.74a4.66,4.66,0,0,0-1.44-3.26,4.58,4.58,0,0,0-3.3-1.33h-1V1.41h16.22v.74h-1a4.54,4.54,0,0,0-3.3,1.33,4.66,4.66,0,0,0-1.44,3.26V47.85a4.48,4.48,0,0,0,1.4,3.3,4.64,4.64,0,0,0,3.34,1.37h1v.74H399.39v-.74Z"/><path class="cls-1" d="M492.42,2.15a4.42,4.42,0,0,0-3.18,1.29,4.52,4.52,0,0,0-1.41,3.15V44.81a60.38,60.38,0,0,0,.52,8.15l.15,1.33h-.67L447.46,11.18V48.07a4.28,4.28,0,0,0,2.3,3.85,4.35,4.35,0,0,0,2.22.6h1.41v.74H438.13v-.74h1.4a4.43,4.43,0,0,0,3.19-1.3A4.3,4.3,0,0,0,444.05,48V9.55a55.72,55.72,0,0,0-.52-8.07L443.39.3h.74L484.5,43.41V6.67a4.59,4.59,0,0,0-1.41-3.23,4.42,4.42,0,0,0-3.19-1.29h-1.4V1.41h15.25v.74Z"/><path class="cls-1" d="M14.94,96.57h.5V97H7v-.38h.5a2.33,2.33,0,0,0,1.71-.71A2.53,2.53,0,0,0,10,94.15V72.81a2.43,2.43,0,0,0-.75-1.69,2.32,2.32,0,0,0-1.71-.7H7V70h8.42v.38h-.5a2.32,2.32,0,0,0-1.71.7,2.35,2.35,0,0,0-.75,1.69V94.15a2.31,2.31,0,0,0,.73,1.71A2.41,2.41,0,0,0,14.94,96.57ZM30.4,97H28.74Q24.83,97,23,94.76L13.71,83.57l9.07-11.38a1.11,1.11,0,0,0,.31-.69A1.33,1.33,0,0,0,23,71a1.16,1.16,0,0,0-1.12-.57h-.38V70h8.11v.35h-.16a5.33,5.33,0,0,0-4.15,1.8l-9,10.46L26.74,95a5.16,5.16,0,0,0,3.66,1.58Z"/><path class="cls-1" d="M46.87,73.37a13.42,13.42,0,0,1,10-3.87,13.46,13.46,0,0,1,10,3.87A13.7,13.7,0,0,1,70.69,83.5a13.73,13.73,0,0,1-3.85,10.13,13.49,13.49,0,0,1-10,3.86,13.45,13.45,0,0,1-10-3.86A13.79,13.79,0,0,1,43.05,83.5,13.76,13.76,0,0,1,46.87,73.37ZM49,92.8a9.78,9.78,0,0,0,7.88,3.54,9.79,9.79,0,0,0,7.88-3.54,13.94,13.94,0,0,0,3-9.3,15.89,15.89,0,0,0-1.35-6.73,10.09,10.09,0,0,0-9.53-6.12A9.75,9.75,0,0,0,49,74.19a14,14,0,0,0-3,9.31A13.94,13.94,0,0,0,49,92.8Z"/><path class="cls-1" d="M86.45,95.38a13,13,0,0,1-.11-2.08A10.53,10.53,0,0,1,86.91,90h.35a8.06,8.06,0,0,0,0,.85,5.57,5.57,0,0,0,1.43,3.9,4.83,4.83,0,0,0,3.76,1.56,5.6,5.6,0,0,0,4-1.46A4.83,4.83,0,0,0,98,91.21a4.66,4.66,0,0,0-1.5-3.6l-7.38-6.84A6.11,6.11,0,0,1,87,76.11a6.57,6.57,0,0,1,1.83-4.67,6.47,6.47,0,0,1,4.94-1.94,16.14,16.14,0,0,1,3.3.39h1.5v4.72h-.34A3.63,3.63,0,0,0,97,71.73a4.72,4.72,0,0,0-3.21-1.08A4.52,4.52,0,0,0,90.47,72a4.58,4.58,0,0,0,.21,6.65l7.58,7a6.28,6.28,0,0,1,1.92,4.85,6.86,6.86,0,0,1-2,5.05,7,7,0,0,1-5.23,2,13.55,13.55,0,0,1-3.6-.52A6.37,6.37,0,0,1,86.45,95.38Z"/><path class="cls-1" d="M148.51,96.57h.61V97h-8.34v-.34h.58a1.46,1.46,0,0,0,1.11-.52,1.41,1.41,0,0,0,.39-1.14l-1.73-19.34-8.08,18a15.26,15.26,0,0,0-1.31,3.92h-.38l-9.84-21.34L119.86,95a1.41,1.41,0,0,0,.39,1.14,1.43,1.43,0,0,0,1.08.52h.61V97h-7.46v-.38h.62a2.85,2.85,0,0,0,1.86-.65,2.67,2.67,0,0,0,.94-1.77l2.89-24.65h.38L131.9,92.69,142.4,69.5h.34l3,24.65a2.56,2.56,0,0,0,1.54,2.15A3,3,0,0,0,148.51,96.57Z"/><path class="cls-1" d="M164,96.57a2.33,2.33,0,0,0,1.71-.71,2.45,2.45,0,0,0,.75-1.71V72.62a2.43,2.43,0,0,0-.81-1.56,2.37,2.37,0,0,0-1.65-.64h-.46l0-.38h11.27a16.44,16.44,0,0,0,2.59-.23,10.45,10.45,0,0,0,2-.46v4.84H179V73.5a2.17,2.17,0,0,0-.64-1.58,2.22,2.22,0,0,0-1.52-.69H169V83.11h6.5a2,2,0,0,0,1.31-.57,1.86,1.86,0,0,0,.53-1.35v-.54h.39v6.08h-.39v-.58a1.84,1.84,0,0,0-1.8-1.88H169V95.76h5.5a6.51,6.51,0,0,0,4.34-1.27,9.27,9.27,0,0,0,2.5-3.77h.39L179.5,97h-16v-.38Z"/><path class="cls-1" d="M217.6,73.46a2.21,2.21,0,0,0-.65-1.59,2.25,2.25,0,0,0-1.54-.72H208.1v23a2.45,2.45,0,0,0,.75,1.7,2.39,2.39,0,0,0,1.71.69h.5V97h-8.42v-.38h.5a2.46,2.46,0,0,0,2.46-2.35V71.15h-7.3a2.2,2.2,0,0,0-1.56.72,2.24,2.24,0,0,0-.63,1.59v.66l-.39,0V69.31a10.76,10.76,0,0,0,2,.46,16.91,16.91,0,0,0,2.62.23h13a13.71,13.71,0,0,0,3.13-.29,12,12,0,0,0,1.52-.4v4.84l-.38,0Z"/><path class="cls-1" d="M233.06,96.57a2.37,2.37,0,0,0,1.71-.71,2.53,2.53,0,0,0,.75-1.71V72.81a2.43,2.43,0,0,0-.75-1.69,2.36,2.36,0,0,0-1.71-.7h-.5V70H241v.38h-.5A2.46,2.46,0,0,0,238,72.81V94.15a2.31,2.31,0,0,0,.73,1.71,2.39,2.39,0,0,0,1.73.71h.5V97h-8.42v-.38Z"/><path class="cls-1" d="M265,96.57h.5V97h-8.42v-.38h.49a2.37,2.37,0,0,0,1.72-.71,2.53,2.53,0,0,0,.75-1.71V72.81a2.43,2.43,0,0,0-.75-1.69,2.36,2.36,0,0,0-1.72-.7h-.49V70h8.42v.38H265a2.36,2.36,0,0,0-1.72.7,2.43,2.43,0,0,0-.75,1.69V94.15a2.32,2.32,0,0,0,.74,1.71A2.39,2.39,0,0,0,265,96.57Zm15.45.38h-1.65q-3.93,0-5.77-2.19l-9.26-11.19,9.07-11.38a1.16,1.16,0,0,0,.31-.69A1.19,1.19,0,0,0,273,71a1.15,1.15,0,0,0-1.11-.57h-.39V70h8.11v.35h-.15a5.31,5.31,0,0,0-4.15,1.8l-9,10.46L276.81,95a5.12,5.12,0,0,0,3.65,1.58Z"/><path class="cls-1" d="M293.92,95.38a11.54,11.54,0,0,1-.12-2.08,10.56,10.56,0,0,1,.58-3.27h.35a8.06,8.06,0,0,0,0,.85,5.56,5.56,0,0,0,1.42,3.9,4.85,4.85,0,0,0,3.77,1.56,5.61,5.61,0,0,0,4-1.46,4.83,4.83,0,0,0,1.56-3.67,4.66,4.66,0,0,0-1.5-3.6l-7.39-6.84a6.13,6.13,0,0,1-2.07-4.66,6.61,6.61,0,0,1,1.82-4.67,6.48,6.48,0,0,1,4.94-1.94,16.15,16.15,0,0,1,3.31.39H306v4.72h-.35a3.59,3.59,0,0,0-1.25-2.88,4.72,4.72,0,0,0-3.21-1.08A4.49,4.49,0,0,0,297.94,72a4.58,4.58,0,0,0,.21,6.65l7.57,7a6.28,6.28,0,0,1,1.92,4.85,6.86,6.86,0,0,1-2,5.05,7,7,0,0,1-5.22,2,13.55,13.55,0,0,1-3.6-.52A6.27,6.27,0,0,1,293.92,95.38Z"/><path class="cls-1" d="M344,73.46a2.18,2.18,0,0,0-.66-1.59,2.23,2.23,0,0,0-1.54-.72h-7.3v23A2.46,2.46,0,0,0,337,96.57h.5V97h-8.42v-.38h.5a2.35,2.35,0,0,0,1.71-.69,2.42,2.42,0,0,0,.75-1.66V71.15h-7.31a2.2,2.2,0,0,0-1.55.72,2.25,2.25,0,0,0-.64,1.59v.66l-.38,0V69.31a10.56,10.56,0,0,0,2,.46,16.89,16.89,0,0,0,2.61.23h13a13.76,13.76,0,0,0,3.13-.29,12.59,12.59,0,0,0,1.52-.4v4.84l-.38,0Z"/><path class="cls-1" d="M384.92,70.42h-.61a2.07,2.07,0,0,0-1.4.52,1.79,1.79,0,0,0-.64,1.29V87.46a9.68,9.68,0,0,1-2.84,7.26,10.4,10.4,0,0,1-7.58,2.77,10.75,10.75,0,0,1-7.67-2.75,9.45,9.45,0,0,1-2.94-7.24V72.35a1.8,1.8,0,0,0-1-1.7,2.34,2.34,0,0,0-1-.23h-.61V70h7.8v.38h-.61a2.1,2.1,0,0,0-1.43.52,1.83,1.83,0,0,0-.61,1.33V87A9.89,9.89,0,0,0,366,93.72a7.58,7.58,0,0,0,6,2.58,8.07,8.07,0,0,0,6.11-2.44,8.87,8.87,0,0,0,2.34-6.4V72.27a1.83,1.83,0,0,0-.61-1.33,2.09,2.09,0,0,0-1.42-.52h-.62V70h7.11Z"/><path class="cls-1" d="M423.2,73.75A13,13,0,0,1,427,83.5a13,13,0,0,1-3.83,9.74,13.71,13.71,0,0,1-10,3.71h-13v-.38h.5a2.37,2.37,0,0,0,1.71-.71,2.53,2.53,0,0,0,.75-1.71V72.62a2,2,0,0,0-.75-1.56,2.59,2.59,0,0,0-1.71-.64h-.46l0-.38h13A13.75,13.75,0,0,1,423.2,73.75Zm-17.55-2.56V95.8h7.57a10.55,10.55,0,0,0,5.71-1.54,10.24,10.24,0,0,0,3.85-4.32,14.49,14.49,0,0,0,1.36-6.44,12.85,12.85,0,0,0-3-8.92,10.06,10.06,0,0,0-7.9-3.39Z"/><path class="cls-1" d="M442.48,96.57a2.33,2.33,0,0,0,1.71-.71,2.45,2.45,0,0,0,.75-1.71V72.81a2.35,2.35,0,0,0-.75-1.69,2.32,2.32,0,0,0-1.71-.7H442V70h8.42v.38h-.5a2.36,2.36,0,0,0-1.71.7,2.43,2.43,0,0,0-.75,1.69V94.15a2.31,2.31,0,0,0,.73,1.71,2.43,2.43,0,0,0,1.73.71h.5V97H442v-.38Z"/><path class="cls-1" d="M470,73.37a14.83,14.83,0,0,1,20,0,13.73,13.73,0,0,1,3.84,10.13,13.76,13.76,0,0,1-3.84,10.13,14.86,14.86,0,0,1-20,0,13.79,13.79,0,0,1-3.82-10.13A13.76,13.76,0,0,1,470,73.37Zm2.12,19.43a10.54,10.54,0,0,0,15.76,0,13.94,13.94,0,0,0,3-9.3,16,16,0,0,0-1.34-6.73,10.12,10.12,0,0,0-9.54-6.12,9.76,9.76,0,0,0-7.86,3.54,14,14,0,0,0-3,9.31A13.94,13.94,0,0,0,472.07,92.8Z"/><path class="cls-1" d="M208.82,137.52h1.5l3.18,7.74,3.17-7.74h1.5l-3.74,9,4.46,10.37,8.16-19.49h1.68l-9.12,21.29H218.2l-4.67-10.94-4.71,10.94h-1.41l-9.09-21.29H200l8.19,19.49,4.41-10.37Z"/><path class="cls-1" d="M241,158.66V137.4h1.53v21.26Z"/><path class="cls-1" d="M271.33,157.28v1.38H257.15V137.37h13.91v1.38H258.68v8.37H269.5v1.32H258.68v8.84Z"/><path class="cls-1" d="M286.11,140.25v18.41h-1.53V137.37h1.17l14.93,18.74V137.4h1.53v21.26H300.8Z"/><rect class="cls-1" x="6.34" y="115.35" width="485.5" height="2.4"/></g></g></svg>