<?xml version="1.0" encoding="utf-8"?>
<!-- Generator: Adobe Illustrator 24.1.1, SVG Export Plug-In . SVG Version: 6.00 Build 0)  -->
<svg version="1.1" id="Layer_1" xmlns="http://www.w3.org/2000/svg" xmlns:xlink="http://www.w3.org/1999/xlink" x="0px" y="0px"
	 viewBox="0 0 330 120" style="enable-background:new 0 0 330 120;" xml:space="preserve">
<style type="text/css">
	.st0{fill:#A68549;}
</style>
<g id="Layer_2_1_">
	<g id="Layer_1-2">
		<path class="st0" d="M46.4,46.6h0.4V47H36.6v-0.5H37c0.5,0,1.1-0.2,1.4-0.6c0.3-0.3,0.5-0.7,0.5-1.2c0-0.4-0.1-0.7-0.2-1.1
			L35.8,36H23.5l-3.1,7.8c-0.1,0.3-0.2,0.7-0.2,1.1c0,0.4,0.2,0.8,0.5,1.1c0.4,0.4,0.9,0.7,1.4,0.6h0.4V47h-9.1v-0.5h0.4
			c0.8,0,1.6-0.3,2.2-0.7c0.8-0.5,1.4-1.3,1.8-2.1l10.3-24.5c1.1-2.5,1.7-4,1.7-4.7h0.4l12.2,29.1c0.4,0.9,1,1.6,1.7,2.1
			C44.8,46.3,45.6,46.5,46.4,46.6z M24.1,34.6h11.2L29.8,20L24.1,34.6z"/>
		<path class="st0" d="M87.2,15.6h-0.7c-0.6,0-1.2,0.2-1.7,0.6c-0.4,0.4-0.7,0.9-0.7,1.5v18c0,3.5-1.1,6.4-3.4,8.6s-5.2,3.3-9,3.2
			c-3.7,0-6.8-1.1-9.1-3.2c-2.3-2.2-3.5-5-3.5-8.6V17.9c0-0.8-0.4-1.6-1.2-2c-0.4-0.2-0.8-0.3-1.2-0.3H56v-0.5h9.2v0.5h-0.7
			c-0.6,0-1.2,0.2-1.7,0.6c-0.5,0.4-0.7,1-0.7,1.6v17.4c0,3.3,0.9,6,2.7,8c1.8,2,4.4,3.2,7.1,3.1c2.7,0.1,5.4-0.9,7.3-2.9
			c1.8-1.9,2.8-4.4,2.8-7.6v-18c0-0.6-0.3-1.2-0.7-1.6c-0.5-0.4-1.1-0.6-1.7-0.6h-0.7v-0.5h8.4L87.2,15.6z"/>
		<path class="st0" d="M105.1,43c-3-3-4.5-7-4.5-12c0-4.9,1.5-8.9,4.5-12c3-3,6.9-4.6,11.8-4.6c3.9-0.1,7.7,1,11,3.1l0.9,6.4h-0.4
			c-0.5-2.4-2-4.6-4-6c-2.2-1.5-4.9-2.2-7.5-2.1c-3.6-0.1-7,1.4-9.3,4.2c-2.4,2.8-3.6,6.5-3.6,11c0,4.5,1.2,8.2,3.6,11
			c2.3,2.7,5.8,4.3,9.3,4.2c1.9,0,3.8-0.3,5.6-1c1.7-0.7,3.3-1.7,4.7-2.9v-8c0-0.6-0.2-1.1-0.6-1.5c-0.5-0.4-1.1-0.6-1.7-0.5h-0.7
			v-0.5h8.9v0.5h-0.7c-0.6,0-1.2,0.1-1.7,0.5c-0.4,0.4-0.6,1-0.5,1.5v7.5c-0.8,1-1.8,2-2.8,2.8c-1.3,0.9-2.8,1.7-4.4,2.2
			c-1.9,0.6-3.9,0.9-6,0.9C112,47.6,108.1,46.1,105.1,43z"/>
		<path class="st0" d="M176.6,15.6h-0.7c-0.6,0-1.2,0.2-1.7,0.6c-0.5,0.4-0.7,0.9-0.7,1.5v18c0,3.5-1.1,6.4-3.4,8.6s-5.2,3.3-9,3.3
			c-3.7,0-6.8-1.1-9.1-3.2c-2.3-2.2-3.5-5-3.5-8.6V17.9c0-0.8-0.4-1.6-1.2-2c-0.4-0.2-0.8-0.3-1.2-0.3h-0.7v-0.5h9.2v0.5H154
			c-0.6,0-1.2,0.2-1.7,0.6c-0.5,0.4-0.7,1-0.8,1.6v17.4c0,3.3,0.9,6,2.7,8c1.8,2.1,4.4,3.2,7.2,3.1c2.7,0.1,5.3-0.9,7.2-2.9
			c1.8-1.9,2.8-4.4,2.8-7.6v-18c0-0.6-0.3-1.2-0.7-1.6c-0.5-0.4-1.1-0.6-1.7-0.6h-0.7v-0.5h8.4L176.6,15.6z"/>
		<path class="st0" d="M190.7,45.1c-0.1-0.8-0.2-1.6-0.1-2.5c0-1.3,0.2-2.6,0.7-3.9h0.4c0,0.3,0,0.7,0,1c-0.1,1.7,0.5,3.4,1.7,4.6
			c1.1,1.2,2.8,1.9,4.5,1.8c1.7,0.1,3.4-0.6,4.7-1.7c1.2-1.1,1.9-2.7,1.8-4.3c0.1-1.6-0.6-3.2-1.8-4.2l-8.7-8.1
			c-1.6-1.4-2.5-3.4-2.5-5.5c0-2.1,0.7-4,2.2-5.5c1.5-1.6,3.7-2.4,5.9-2.3c1.3,0,2.6,0.2,3.9,0.5h1.8v5.6h-0.4
			c0.1-1.3-0.5-2.6-1.5-3.4c-1.1-0.9-2.4-1.3-3.8-1.3c-1.5,0-2.9,0.5-3.9,1.5c-1,1-1.6,2.4-1.6,3.9c0,1.5,0.7,3,1.8,4l9,8.3
			c1.5,1.4,2.3,3.3,2.3,5.7c0.1,2.2-0.8,4.4-2.3,6c-1.6,1.6-3.9,2.4-6.2,2.3c-1.4,0-2.9-0.2-4.3-0.6
			C192.9,46.7,191.7,46.1,190.7,45.1z"/>
		<path class="st0" d="M245.4,19.2c0-0.7-0.3-1.4-0.8-1.9c-0.5-0.5-1.1-0.8-1.8-0.8h-8.6v27.2c0,0.8,0.3,1.5,0.9,2
			c0.5,0.5,1.3,0.8,2,0.8h0.6V47h-10v-0.5h0.6c1.5,0,2.8-1.2,2.9-2.8V16.5h-8.6c-0.7,0-1.4,0.3-1.8,0.8c-0.5,0.5-0.8,1.2-0.7,1.9V20
			l-0.5,0v-5.7c0.8,0.3,1.6,0.4,2.4,0.5c1,0.2,2,0.3,3.1,0.3h15.3c1.2,0,2.5-0.1,3.7-0.3c0.6-0.1,1.3-0.3,1.9-0.5V20l-0.4,0V19.2z"
			/>
		<path class="st0" d="M259.2,46.6c0.8,0,1.5-0.3,2-0.8c0.5-0.5,0.9-1.3,0.9-2V18.5c0-0.8-0.3-1.5-0.9-2c-0.5-0.5-1.3-0.8-2-0.8
			h-0.6v-0.5h10v0.5h-0.6c-0.8,0-1.5,0.3-2,0.8c-0.5,0.5-0.9,1.2-0.9,2v25.2c0,0.8,0.3,1.5,0.9,2c0.5,0.5,1.3,0.8,2,0.8h0.6V47h-9.9
			v-0.5L259.2,46.6z"/>
		<path class="st0" d="M315.7,15.6c-0.7,0-1.4,0.3-2,0.8c-0.5,0.5-0.8,1.2-0.9,1.9v23.5c0,1.7,0.1,3.3,0.3,5l0.1,0.8h-0.4
			l-24.8-26.5v22.6c0,1,0.5,1.9,1.4,2.4c0.4,0.2,0.9,0.4,1.4,0.4h0.9V47h-9.4v-0.5h0.9c0.7,0,1.4-0.3,2-0.8c0.5-0.5,0.8-1.2,0.8-2
			V20.2c0-1.7-0.1-3.3-0.3-5l-0.1-0.7h0.5L310.8,41V18.4c0-0.7-0.3-1.5-0.9-2c-0.5-0.5-1.2-0.8-2-0.8h-0.9v-0.5h9.4v0.5H315.7z"/>
		<path class="st0" d="M22.6,73.6h0.3v0.3h-5.2v-0.2h0.3c0.4,0,0.8-0.2,1-0.4c0.3-0.3,0.5-0.7,0.5-1.1V59c0-0.4-0.2-0.8-0.5-1
			c-0.3-0.3-0.7-0.4-1-0.4h-0.3v-0.3h5.2v0.2h-0.3c-0.4,0-0.8,0.1-1,0.4c-0.3,0.3-0.5,0.6-0.5,1v13.1c0,0.4,0.2,0.8,0.4,1
			C21.8,73.4,22.2,73.6,22.6,73.6z M32.1,73.8h-1c-1.6,0-2.8-0.5-3.5-1.4l-5.7-6.9l5.6-7c0.1-0.1,0.2-0.3,0.2-0.4
			c0-0.1,0-0.2-0.1-0.3c-0.1-0.2-0.4-0.4-0.7-0.3h-0.2v-0.3h5v0.2h-0.1c-1,0-1.9,0.4-2.5,1.1L23.5,65l6.4,7.6c0.6,0.6,1.4,1,2.2,1
			V73.8z"/>
		<path class="st0" d="M42.2,59.3c1.6-1.6,3.9-2.5,6.1-2.4c2.3-0.1,4.5,0.8,6.1,2.4c1.6,1.7,2.4,3.9,2.3,6.2
			c0.1,2.3-0.8,4.6-2.4,6.2c-1.6,1.6-3.9,2.5-6.1,2.4c-2.3,0.1-4.5-0.8-6.1-2.4c-1.6-1.7-2.4-3.9-2.3-6.2
			C39.8,63.3,40.6,61,42.2,59.3z M43.5,71.3c1.2,1.4,3,2.2,4.8,2.2c1.9,0.1,3.6-0.7,4.8-2.2c1.3-1.6,1.9-3.6,1.8-5.7
			c0-1.4-0.3-2.8-0.8-4.1c-1-2.3-3.3-3.8-5.8-3.8c-1.9-0.1-3.7,0.7-4.8,2.2c-1.3,1.6-1.9,3.6-1.8,5.7C41.6,67.6,42.3,69.7,43.5,71.3
			z"/>
		<path class="st0" d="M66.5,72.9c-0.1-0.4-0.1-0.8-0.1-1.3c0-0.7,0.1-1.4,0.3-2H67c0,0.2,0,0.3,0,0.5c0,0.9,0.3,1.7,0.9,2.4
			c0.6,0.6,1.4,1,2.3,1c0.9,0,1.8-0.3,2.5-0.9c0.6-0.6,1-1.4,1-2.2c0-0.8-0.3-1.6-0.9-2.2l-4.5-4.2c-0.8-0.7-1.3-1.8-1.3-2.9
			c0-1.1,0.4-2.1,1.1-2.9c0.8-0.8,1.9-1.2,3-1.2c0.7,0,1.4,0.1,2,0.2H74v2.9h-0.2c0-0.7-0.2-1.3-0.8-1.8c-0.6-0.5-1.3-0.7-2-0.7
			c-0.8,0-1.5,0.3-2,0.8c-1.1,1.1-1.1,2.9,0,4c0,0,0.1,0.1,0.1,0.1l4.7,4.3c0.8,0.8,1.2,1.9,1.2,3c0,1.2-0.4,2.3-1.2,3.1
			c-0.9,0.8-2,1.3-3.2,1.2c-0.7,0-1.5-0.1-2.2-0.3C67.6,73.7,67,73.3,66.5,72.9z"/>
		<path class="st0" d="M104.6,73.6h0.4v0.3h-5.1v-0.2h0.4c0.3,0,0.5-0.1,0.7-0.3c0.2-0.2,0.3-0.4,0.2-0.7l-1.1-11.9l-5,11
			c-0.4,0.8-0.6,1.6-0.8,2.4h-0.2l-6-13.1l-1,11.5c0,0.3,0.1,0.5,0.2,0.7c0.2,0.2,0.4,0.3,0.7,0.3h0.4v0.2h-4.6v-0.2h0.4
			c0.4,0,0.8-0.1,1.1-0.4c0.3-0.3,0.5-0.7,0.6-1.1L87.6,57h0.2l6.6,14.2l6.4-14.2h0.2l1.8,15.1c0,0.6,0.4,1.1,0.9,1.3
			C104.1,73.5,104.3,73.6,104.6,73.6z"/>
		<path class="st0" d="M114.1,73.6c0.4,0,0.8-0.2,1-0.4c0.3-0.3,0.5-0.7,0.5-1V58.9c0-0.4-0.2-0.7-0.5-1c-0.3-0.3-0.6-0.4-1-0.4
			h-0.3v-0.2h6.9c0.5,0,1.1-0.1,1.6-0.1c0.4-0.1,0.8-0.1,1.2-0.3v3h-0.2v-0.4c0-0.4-0.1-0.7-0.4-1c-0.2-0.3-0.6-0.4-0.9-0.4h-4.8
			v7.3h4c0.3,0,0.6-0.1,0.8-0.3c0.2-0.2,0.3-0.5,0.3-0.8v-0.3h0.2v3.7h-0.2v-0.4c0-0.6-0.5-1.1-1.1-1.2c0,0,0,0,0,0h-4v7.1h3.4
			c1,0.1,1.9-0.2,2.7-0.8c0.7-0.6,1.2-1.4,1.5-2.3h0.2l-1.4,3.9h-9.8v-0.2L114.1,73.6z"/>
		<path class="st0" d="M147,59.4c0-0.4-0.1-0.7-0.4-1c-0.2-0.3-0.6-0.4-0.9-0.4h-4.5v14.1c0,0.4,0.2,0.8,0.5,1
			c0.3,0.3,0.7,0.4,1,0.4h0.3v0.3h-5.2v-0.2h0.3c0.8,0,1.5-0.6,1.5-1.4V58h-4.5c-0.4,0-0.7,0.2-1,0.4c-0.3,0.3-0.4,0.6-0.4,1v0.4
			h-0.2v-3c0.4,0.1,0.8,0.2,1.2,0.3c0.5,0.1,1.1,0.1,1.6,0.1h8c0.6,0,1.3,0,1.9-0.2c0.3-0.1,0.6-0.1,0.9-0.2v3H147L147,59.4z"/>
		<path class="st0" d="M156.5,73.6c0.4,0,0.8-0.2,1-0.4c0.3-0.3,0.4-0.7,0.5-1V59c0-0.4-0.2-0.8-0.5-1c-0.3-0.3-0.7-0.4-1-0.4h-0.3
			v-0.3h5.2v0.2h-0.3c-0.8,0-1.5,0.7-1.5,1.5c0,0,0,0,0,0v13.1c0,0.4,0.2,0.8,0.4,1c0.3,0.3,0.7,0.4,1.1,0.4h0.3v0.3h-5.2v-0.2
			L156.5,73.6z"/>
		<path class="st0" d="M176.1,73.6h0.3v0.3h-5.2v-0.2h0.3c0.4,0,0.8-0.2,1.1-0.4c0.3-0.3,0.4-0.7,0.5-1V59c0-0.4-0.2-0.8-0.5-1
			c-0.3-0.3-0.7-0.4-1.1-0.4h-0.3v-0.3h5.2v0.2h-0.3c-0.4,0-0.8,0.1-1.1,0.4c-0.3,0.3-0.4,0.6-0.5,1v13.1c0,0.4,0.2,0.8,0.5,1
			C175.3,73.4,175.7,73.6,176.1,73.6z M185.6,73.8h-1c-1.6,0-2.8-0.4-3.5-1.3l-5.7-6.9l5.6-7c0.1-0.1,0.2-0.3,0.2-0.4
			c0-0.1,0-0.2-0.1-0.3c-0.1-0.2-0.4-0.4-0.7-0.3h-0.2v-0.3h5v0.2H185c-1,0-1.9,0.4-2.5,1.1l-5.5,6.4l6.4,7.6c0.6,0.6,1.4,1,2.2,1
			L185.6,73.8z"/>
		<path class="st0" d="M193.8,72.9c-0.1-0.4-0.1-0.8-0.1-1.3c0-0.7,0.1-1.4,0.4-2h0.2c0,0.2,0,0.3,0,0.5c0,0.9,0.3,1.7,0.9,2.4
			c0.6,0.6,1.4,1,2.3,1c0.9,0,1.8-0.3,2.5-0.9c0.6-0.6,1-1.4,1-2.3c0-0.8-0.3-1.6-0.9-2.2l-4.5-4.2c-0.8-0.7-1.3-1.8-1.3-2.9
			c0-1.1,0.4-2.1,1.1-2.9c0.8-0.8,1.9-1.2,3-1.2c0.7,0,1.4,0.1,2,0.2h0.9v2.9H201c0-0.7-0.3-1.3-0.8-1.8c-0.6-0.5-1.3-0.7-2-0.7
			c-0.7,0-1.5,0.3-2,0.8c-1.1,1.1-1.1,2.9,0,4c0,0,0.1,0.1,0.1,0.1l4.6,4.3c0.8,0.8,1.2,1.9,1.2,3c0,1.2-0.4,2.3-1.2,3.1
			c-0.9,0.8-2,1.3-3.2,1.2c-0.7,0-1.5-0.1-2.2-0.3C194.9,73.7,194.3,73.3,193.8,72.9z"/>
		<path class="st0" d="M224.6,59.4c0-0.4-0.1-0.7-0.4-1c-0.2-0.3-0.6-0.4-0.9-0.4h-4.5v14.1c0,0.8,0.7,1.5,1.5,1.5c0,0,0,0,0,0h0.3
			v0.3h-5.2v-0.2h0.3c0.4,0,0.8-0.1,1-0.4c0.3-0.3,0.4-0.6,0.5-1V58h-4.5c-0.4,0-0.7,0.2-1,0.4c-0.3,0.3-0.4,0.6-0.4,1v0.4h-0.2v-3
			c0.4,0.1,0.8,0.2,1.2,0.3c0.5,0.1,1.1,0.1,1.6,0.1h8c0.6,0,1.3,0,1.9-0.2c0.3-0.1,0.6-0.1,0.9-0.2v3h-0.2L224.6,59.4z"/>
		<path class="st0" d="M249.7,57.5h-0.4c-0.3,0-0.6,0.1-0.9,0.3c-0.2,0.2-0.4,0.5-0.4,0.8V68c0.1,1.7-0.6,3.3-1.7,4.5
			c-1.3,1.2-2.9,1.8-4.7,1.7c-1.7,0.1-3.4-0.5-4.7-1.7c-1.2-1.2-1.9-2.8-1.8-4.4v-9.3c0-0.4-0.2-0.8-0.6-1c-0.2-0.1-0.4-0.1-0.6-0.1
			h-0.4v-0.3h4.8v0.2H238c-0.3,0-0.6,0.1-0.9,0.3c-0.2,0.2-0.4,0.5-0.4,0.8v9.1c-0.1,1.5,0.4,3,1.4,4.1c0.9,1.1,2.3,1.6,3.7,1.6
			c1.4,0.1,2.8-0.5,3.7-1.5c1-1.1,1.5-2.5,1.4-3.9v-9.3c0-0.3-0.1-0.6-0.4-0.8c-0.2-0.2-0.6-0.3-0.9-0.3h-0.4v-0.3h4.4L249.7,57.5z"
			/>
		<path class="st0" d="M273.2,59.6c1.6,1.6,2.4,3.8,2.3,6c0.1,2.2-0.8,4.4-2.4,6c-1.7,1.6-3.9,2.4-6.1,2.3h-8v-0.2h0.3
			c0.4,0,0.8-0.2,1-0.4c0.3-0.3,0.4-0.7,0.5-1V58.9c0-0.4-0.2-0.7-0.5-1c-0.3-0.3-0.7-0.4-1-0.4h-0.3v-0.2h8
			C269.3,57.2,271.5,58,273.2,59.6z M262.4,58v15.1h4.6c1.2,0,2.5-0.3,3.5-0.9c1-0.6,1.8-1.6,2.4-2.7c0.6-1.2,0.9-2.6,0.8-4
			c0.1-2-0.6-3.9-1.8-5.5c-1.2-1.4-3-2.1-4.8-2.1H262.4z"/>
		<path class="st0" d="M285,73.6c0.4,0,0.8-0.2,1-0.4c0.3-0.3,0.5-0.7,0.5-1V59c0-0.4-0.2-0.8-0.5-1c-0.3-0.3-0.7-0.4-1-0.4h-0.3
			v-0.3h5.2v0.2h-0.3c-0.4,0-0.8,0.1-1,0.4c-0.3,0.3-0.4,0.6-0.5,1v13.1c0,0.4,0.2,0.8,0.4,1c0.3,0.3,0.7,0.4,1.1,0.4h0.3v0.3h-5.2
			v-0.2L285,73.6z"/>
		<path class="st0" d="M301.9,59.3c3.5-3.2,8.8-3.2,12.3,0c1.6,1.7,2.5,3.9,2.4,6.2c0.1,2.3-0.8,4.6-2.4,6.2
			c-3.5,3.2-8.8,3.2-12.3,0c-1.6-1.7-2.4-3.9-2.3-6.2C299.4,63.3,300.3,61,301.9,59.3z M303.2,71.3c2.4,2.7,6.5,2.9,9.1,0.5
			c0.2-0.2,0.4-0.3,0.5-0.5c1.3-1.6,1.9-3.6,1.8-5.7c0-1.4-0.3-2.8-0.8-4.1c-1-2.3-3.3-3.8-5.9-3.8c-1.9-0.1-3.6,0.7-4.8,2.2
			c-1.3,1.6-1.9,3.6-1.8,5.7C301.3,67.6,301.9,69.6,303.2,71.3L303.2,71.3z"/>
		<path class="st0" d="M141.6,98.7h0.9l2,4.7l1.9-4.7h0.9l-2.3,5.5l2.7,6.4l5-12h1l-5.6,13.1h-0.9l-2.9-6.7l-2.9,6.7h-0.9l-5.6-13.1
			h1l5,12l2.7-6.4L141.6,98.7z"/>
		<path class="st0" d="M161.4,111.7v-13h0.9v13L161.4,111.7z"/>
		<path class="st0" d="M180,110.8v0.8h-8.7V98.6h8.5v0.8h-7.6v5.1h6.6v0.8h-6.6v5.4H180z"/>
		<path class="st0" d="M189,100.4v11.3h-0.9V98.6h0.7l9.2,11.5V98.6h0.9v13h-0.9L189,100.4z"/>
		<rect x="17.4" y="85.1" class="st0" width="297.9" height="1.5"/>
	</g>
</g>
</svg>
