<?xml version="1.0" encoding="utf-8"?>
<!-- Generator: Adobe Illustrator 24.1.1, SVG Export Plug-In . SVG Version: 6.00 Build 0)  -->
<svg version="1.1" id="Layer_1" xmlns="http://www.w3.org/2000/svg" xmlns:xlink="http://www.w3.org/1999/xlink" x="0px" y="0px"
	 viewBox="0 0 560 371" style="enable-background:new 0 0 560 371;" xml:space="preserve">
<style type="text/css">
	.st0{fill:#A68549;}
</style>
<g id="XMLID_77_">
	<g id="XMLID_17_">
		<path id="XMLID_19_" class="st0" d="M88.8,162.7h0.6v0.7H72.7v-0.7h0.7c1,0,1.8-0.3,2.3-1c0.5-0.7,0.8-1.3,0.8-1.9
			c0-0.6-0.1-1.2-0.3-1.8l-4.7-12.6h-20l-5,12.7c-0.2,0.6-0.3,1.2-0.3,1.7c0,0.6,0.3,1.2,0.8,1.9c0.5,0.7,1.3,1,2.3,1H50v0.7H35.1
			v-0.7h0.7c1.2,0,2.4-0.4,3.6-1.2c1.2-0.8,2.1-2,2.9-3.5L59,118.2c1.8-4,2.7-6.5,2.7-7.6h0.7L82.3,158c0.7,1.5,1.6,2.7,2.8,3.5
			C86.3,162.3,87.5,162.7,88.8,162.7z M52.4,143.2h18.2l-8.9-23.8L52.4,143.2z"/>
		<path id="XMLID_22_" class="st0" d="M155.2,112.3H154c-1,0-1.9,0.3-2.7,1c-0.8,0.7-1.2,1.5-1.2,2.5v29.3c0,5.8-1.8,10.4-5.5,14
			c-3.7,3.6-8.5,5.3-14.6,5.3c-6.1,0-11-1.8-14.8-5.3c-3.8-3.5-5.7-8.2-5.7-14V116c0-1.5-0.6-2.6-1.9-3.3c-0.6-0.3-1.3-0.4-2-0.4
			h-1.2v-0.7h15v0.7h-1.2c-1.1,0-2,0.3-2.7,1c-0.7,0.7-1.1,1.5-1.2,2.6v28.3c0,5.4,1.4,9.7,4.3,13c2.9,3.3,6.8,5,11.6,5
			c4.8,0,8.8-1.6,11.8-4.7c3-3.1,4.5-7.2,4.5-12.3v-29.3c0-1-0.4-1.9-1.2-2.6c-0.7-0.7-1.7-1-2.7-1h-1.2v-0.7h13.7V112.3z"/>
		<path id="XMLID_24_" class="st0" d="M184.4,157c-4.9-4.9-7.4-11.4-7.4-19.5c0-8,2.5-14.6,7.4-19.5c4.9-5,11.3-7.4,19.2-7.4
			c6.8,0,12.8,1.7,18,5l1.5,10.4h-0.7c-1.1-4.2-3.3-7.5-6.6-9.8c-3.3-2.3-7.4-3.4-12.3-3.4c-6.3,0-11.3,2.3-15.2,6.8
			c-3.9,4.5-5.8,10.5-5.8,17.9s1.9,13.4,5.8,17.9c3.9,4.5,9,6.8,15.2,6.9c3.2,0,6.3-0.6,9.1-1.7c2.9-1.1,5.4-2.7,7.6-4.7v-13.1
			c0-1.1-0.3-1.9-1-2.5c-0.7-0.6-1.6-0.9-2.8-0.9h-1.2v-0.7h14.5v0.7h-1.1c-1.2,0-2.2,0.3-2.8,0.9c-0.6,0.6-0.9,1.4-0.9,2.5v12.2
			c-1.3,1.7-2.8,3.2-4.6,4.5c-1.8,1.3-4.2,2.5-7.1,3.5c-3,1-6.2,1.5-9.7,1.5C195.7,164.4,189.3,161.9,184.4,157z"/>
		<path id="XMLID_26_" class="st0" d="M301,112.3h-1.2c-1,0-1.9,0.3-2.7,1c-0.8,0.7-1.2,1.5-1.2,2.5v29.3c0,5.8-1.8,10.4-5.5,14
			c-3.7,3.6-8.5,5.3-14.6,5.3c-6.1,0-11-1.8-14.8-5.3c-3.8-3.5-5.7-8.2-5.7-14V116c0-1.5-0.6-2.6-1.9-3.3c-0.6-0.3-1.3-0.4-2-0.4
			h-1.2v-0.7h15v0.7h-1.2c-1.1,0-2,0.3-2.7,1c-0.7,0.7-1.1,1.5-1.2,2.6v28.3c0,5.4,1.4,9.7,4.3,13c2.9,3.3,6.8,5,11.6,5
			c4.8,0,8.8-1.6,11.8-4.7c3-3.1,4.5-7.2,4.5-12.3v-29.3c0-1-0.4-1.9-1.2-2.6c-0.7-0.7-1.7-1-2.7-1h-1.2v-0.7H301V112.3z"/>
		<path id="XMLID_28_" class="st0" d="M324,160.4c-0.1-0.7-0.2-2-0.2-4c0-2,0.4-4.1,1.1-6.3h0.7c0,0.5-0.1,1.1-0.1,1.6
			c0,3,0.9,5.5,2.7,7.5c1.8,2,4.2,3,7.3,3c3.1,0,5.7-0.9,7.7-2.8c2-1.9,3-4.2,3-7.1s-1-5.1-2.9-6.9L329,132.2c-2.7-2.5-4-5.5-4-9
			c0-3.5,1.2-6.5,3.5-9c2.3-2.5,5.5-3.7,9.5-3.7c1.9,0,4,0.2,6.4,0.7h2.9v9.1h-0.7c0-2.3-0.8-4.2-2.4-5.6c-1.6-1.4-3.7-2.1-6.2-2.1
			s-4.6,0.8-6.3,2.5c-1.7,1.7-2.6,3.8-2.6,6.3c0,2.5,1,4.7,3,6.5l14.6,13.5c2.5,2.3,3.7,5.4,3.7,9.3c0,4-1.3,7.2-3.8,9.7
			c-2.5,2.5-5.9,3.8-10.1,3.8c-2.2,0-4.5-0.3-6.9-1S325.3,161.8,324,160.4z"/>
		<path id="XMLID_30_" class="st0" d="M413.1,118.2c0-1.2-0.4-2.2-1.3-3.1c-0.8-0.9-1.8-1.3-3-1.4h-14.1v44.4c0,1.3,0.5,2.4,1.4,3.3
			c0.9,0.9,2,1.3,3.3,1.3h1v0.7h-16.2v-0.7h1c1.3,0,2.4-0.4,3.3-1.3c0.9-0.9,1.4-2,1.4-3.2v-44.4h-14.1c-1.2,0-2.2,0.5-3,1.4
			s-1.2,1.9-1.2,3.1v1.3l-0.7,0.1v-9.3c0.7,0.3,2,0.6,3.9,0.9c1.8,0.3,3.5,0.4,5,0.4h25c2.4,0,4.4-0.2,6-0.6s2.6-0.6,2.9-0.8v9.3
			l-0.7-0.1V118.2z"/>
		<path id="XMLID_32_" class="st0" d="M435.5,162.7c1.3,0,2.4-0.5,3.3-1.4c0.9-0.9,1.4-2,1.4-3.3v-41.1c0-1.3-0.5-2.4-1.4-3.3
			c-0.9-0.9-2-1.3-3.3-1.3h-1v-0.7h16.2v0.7h-1c-1.3,0-2.4,0.4-3.3,1.3c-0.9,0.9-1.4,2-1.4,3.3V158c0,1.3,0.5,2.4,1.4,3.3
			c0.9,0.9,2,1.4,3.3,1.4h1v0.7h-16.2v-0.7H435.5z"/>
		<path id="XMLID_34_" class="st0" d="M527.5,112.3c-1.2,0-2.3,0.4-3.2,1.3c-0.9,0.9-1.4,1.9-1.4,3.1V155c0,2.9,0.2,5.6,0.5,8.1
			l0.1,1.3h-0.7l-40.4-43.1v36.9c0,1.7,0.8,3,2.3,3.9c0.7,0.4,1.4,0.6,2.2,0.6h1.4v0.7h-15.3v-0.7h1.4c1.2,0,2.3-0.4,3.2-1.3
			c0.9-0.9,1.3-1.9,1.3-3.2v-38.4c0-3-0.2-5.7-0.5-8.1l-0.1-1.2h0.7l40.4,43.1v-36.7c0-1.3-0.5-2.4-1.4-3.2c-0.9-0.9-2-1.3-3.2-1.3
			h-1.4v-0.7h15.3v0.7H527.5z"/>
	</g>
	<g id="XMLID_14_">
		<path id="XMLID_36_" class="st0" d="M50.1,206.7h0.5v0.4h-8.4v-0.4h0.5c0.7,0,1.2-0.2,1.7-0.7c0.5-0.5,0.7-1,0.8-1.7V183
			c0-0.7-0.3-1.2-0.8-1.7c-0.5-0.5-1-0.7-1.7-0.7h-0.5v-0.4h8.4v0.4h-0.5c-0.7,0-1.2,0.2-1.7,0.7c-0.5,0.5-0.7,1-0.7,1.7v21.3
			c0,0.7,0.2,1.2,0.7,1.7C48.8,206.5,49.4,206.7,50.1,206.7z M65.5,207.1h-1.7c-2.6,0-4.5-0.7-5.8-2.2l-9.3-11.2l9.1-11.4
			c0.2-0.3,0.3-0.5,0.3-0.7c0-0.2,0-0.4-0.1-0.5c-0.2-0.4-0.6-0.6-1.1-0.6h-0.4v-0.3h8.1v0.3h-0.2c-1.7,0-3.1,0.6-4.2,1.8l-9,10.5
			l10.5,12.3c1,1,2.2,1.6,3.7,1.6V207.1z"/>
		<path id="XMLID_39_" class="st0" d="M82,183.5c2.6-2.6,5.9-3.9,10-3.9s7.4,1.3,10,3.9c2.6,2.6,3.8,6,3.8,10.1
			c0,4.2-1.3,7.6-3.8,10.1c-2.6,2.6-5.9,3.9-10,3.9s-7.4-1.3-10-3.9c-2.6-2.6-3.8-6-3.8-10.1C78.2,189.5,79.4,186.1,82,183.5z
			 M84.1,203c2,2.4,4.6,3.5,7.9,3.5s5.9-1.2,7.9-3.5c2-2.4,3-5.5,3-9.3c0-2.5-0.4-4.8-1.3-6.7c-0.9-1.9-2.2-3.5-3.8-4.5
			c-1.7-1.1-3.6-1.6-5.7-1.6c-3.3,0-5.9,1.2-7.9,3.5c-2,2.4-3,5.5-3,9.3S82.1,200.6,84.1,203z"/>
		<path id="XMLID_42_" class="st0" d="M121.6,205.5c-0.1-0.4-0.1-1.1-0.1-2.1s0.2-2.1,0.6-3.3h0.3c0,0.3,0,0.6,0,0.8
			c0,1.6,0.5,2.9,1.4,3.9c0.9,1,2.2,1.6,3.8,1.6c1.6,0,2.9-0.5,4-1.5c1-1,1.6-2.2,1.6-3.7c0-1.5-0.5-2.7-1.5-3.6l-7.4-6.8
			c-1.4-1.3-2.1-2.8-2.1-4.7c0-1.8,0.6-3.4,1.8-4.7c1.2-1.3,2.9-1.9,4.9-1.9c1,0,2.1,0.1,3.3,0.4h1.5v4.7h-0.3
			c0-1.2-0.4-2.2-1.2-2.9c-0.8-0.7-1.9-1.1-3.2-1.1s-2.4,0.4-3.3,1.3c-0.9,0.9-1.3,2-1.3,3.3c0,1.3,0.5,2.4,1.5,3.4l7.6,7
			c1.3,1.2,1.9,2.8,1.9,4.8c0,2.1-0.7,3.7-2,5.1s-3.1,2-5.2,2c-1.1,0-2.3-0.2-3.6-0.5C123.2,206.8,122.3,206.3,121.6,205.5z"/>
		<path id="XMLID_44_" class="st0" d="M183.6,206.7h0.6v0.4h-8.3v-0.3h0.6c0.4,0,0.8-0.2,1.1-0.5s0.4-0.7,0.4-1.1l-1.7-19.3l-8.1,18
			c-0.7,1.6-1.2,2.9-1.3,3.9h-0.4l-9.8-21.3l-1.7,18.8c-0.1,0.4,0.1,0.8,0.4,1.1s0.7,0.5,1.1,0.5h0.6v0.3h-7.5v-0.4h0.6
			c0.7,0,1.3-0.2,1.9-0.7c0.5-0.4,0.8-1,0.9-1.8l2.9-24.6h0.4l10.7,23.2l10.5-23.2h0.3l3,24.6c0.1,1,0.6,1.7,1.5,2.2
			C182.7,206.6,183.2,206.7,183.6,206.7z"/>
		<path id="XMLID_46_" class="st0" d="M199.2,206.7c0.7,0,1.2-0.2,1.7-0.7c0.5-0.5,0.7-1,0.8-1.7v-21.5c-0.1-0.6-0.3-1.1-0.8-1.6
			s-1-0.6-1.7-0.6h-0.5l0-0.4h11.3c0.8,0,1.7-0.1,2.6-0.2c0.9-0.2,1.6-0.3,2-0.5v4.8h-0.4v-0.7c0-0.6-0.2-1.1-0.6-1.6
			c-0.4-0.4-0.9-0.7-1.5-0.7h-7.8v11.9h6.5c0.5,0,0.9-0.2,1.3-0.6c0.4-0.4,0.5-0.8,0.5-1.3v-0.5h0.4v6.1h-0.4v-0.6
			c0-0.5-0.2-0.9-0.5-1.3c-0.3-0.4-0.8-0.6-1.3-0.6h-6.5v11.5h5.5c1.9,0,3.3-0.4,4.3-1.3c1-0.8,1.8-2.1,2.5-3.8h0.4l-2.2,6.2h-16
			v-0.4H199.2z"/>
		<path id="XMLID_48_" class="st0" d="M252.7,183.6c0-0.6-0.2-1.1-0.7-1.6c-0.4-0.4-0.9-0.7-1.5-0.7h-7.3v23c0,0.7,0.3,1.2,0.7,1.7
			c0.5,0.5,1,0.7,1.7,0.7h0.5v0.4h-8.4v-0.4h0.5c0.7,0,1.2-0.2,1.7-0.7c0.5-0.5,0.7-1,0.7-1.7v-23.1h-7.3c-0.6,0-1.1,0.3-1.6,0.7
			c-0.4,0.4-0.6,1-0.6,1.6v0.7l-0.4,0v-4.8c0.4,0.2,1.1,0.3,2,0.5c0.9,0.2,1.8,0.2,2.6,0.2h13c1.3,0,2.3-0.1,3.1-0.3
			c0.8-0.2,1.3-0.3,1.5-0.4v4.8l-0.4,0V183.6z"/>
		<path id="XMLID_50_" class="st0" d="M268.2,206.7c0.7,0,1.2-0.2,1.7-0.7c0.5-0.5,0.7-1,0.8-1.7V183c0-0.7-0.3-1.2-0.8-1.7
			c-0.5-0.5-1-0.7-1.7-0.7h-0.5v-0.4h8.4v0.4h-0.5c-0.7,0-1.2,0.2-1.7,0.7c-0.5,0.5-0.7,1-0.7,1.7v21.3c0,0.7,0.2,1.2,0.7,1.7
			c0.5,0.5,1.1,0.7,1.7,0.7h0.5v0.4h-8.4v-0.4H268.2z"/>
		<path id="XMLID_52_" class="st0" d="M300.1,206.7h0.5v0.4h-8.4v-0.4h0.5c0.7,0,1.2-0.2,1.7-0.7c0.5-0.5,0.7-1,0.8-1.7V183
			c0-0.7-0.3-1.2-0.8-1.7c-0.5-0.5-1-0.7-1.7-0.7h-0.5v-0.4h8.4v0.4h-0.5c-0.7,0-1.2,0.2-1.7,0.7c-0.5,0.5-0.7,1-0.8,1.7v21.3
			c0,0.7,0.2,1.2,0.7,1.7C298.9,206.5,299.5,206.7,300.1,206.7z M315.6,207.1h-1.7c-2.6,0-4.5-0.7-5.8-2.2l-9.3-11.2l9.1-11.4
			c0.2-0.3,0.3-0.5,0.3-0.7c0-0.2,0-0.4-0.1-0.5c-0.2-0.4-0.6-0.6-1.1-0.6h-0.4v-0.3h8.1v0.3h-0.2c-1.7,0-3.1,0.6-4.2,1.8l-9,10.5
			l10.5,12.3c1,1,2.2,1.6,3.7,1.6V207.1z"/>
		<path id="XMLID_55_" class="st0" d="M329,205.5c-0.1-0.4-0.1-1.1-0.1-2.1s0.2-2.1,0.6-3.3h0.3c0,0.3,0,0.6,0,0.8
			c0,1.6,0.5,2.9,1.4,3.9c0.9,1,2.2,1.6,3.8,1.6c1.6,0,2.9-0.5,4-1.5c1-1,1.6-2.2,1.6-3.7c0-1.5-0.5-2.7-1.5-3.6l-7.4-6.8
			c-1.4-1.3-2.1-2.8-2.1-4.7c0-1.8,0.6-3.4,1.8-4.7c1.2-1.3,2.9-1.9,4.9-1.9c1,0,2.1,0.1,3.3,0.4h1.5v4.7h-0.3
			c0-1.2-0.4-2.2-1.2-2.9c-0.8-0.7-1.9-1.1-3.2-1.1s-2.4,0.4-3.3,1.3c-0.9,0.9-1.3,2-1.3,3.3c0,1.3,0.5,2.4,1.5,3.4l7.6,7
			c1.3,1.2,1.9,2.8,1.9,4.8c0,2.1-0.7,3.7-2,5.1c-1.3,1.3-3.1,2-5.2,2c-1.1,0-2.3-0.2-3.6-0.5C330.7,206.8,329.7,206.3,329,205.5z"
			/>
		<path id="XMLID_57_" class="st0" d="M379.1,183.6c0-0.6-0.2-1.1-0.7-1.6c-0.4-0.4-0.9-0.7-1.5-0.7h-7.3v23c0,0.7,0.3,1.2,0.8,1.7
			c0.5,0.5,1,0.7,1.7,0.7h0.5v0.4h-8.4v-0.4h0.5c0.7,0,1.2-0.2,1.7-0.7c0.5-0.5,0.7-1,0.8-1.7v-23.1h-7.3c-0.6,0-1.1,0.3-1.6,0.7
			c-0.4,0.4-0.6,1-0.6,1.6v0.7l-0.4,0v-4.8c0.4,0.2,1.1,0.3,2,0.5c0.9,0.2,1.8,0.2,2.6,0.2h13c1.3,0,2.3-0.1,3.1-0.3
			s1.3-0.3,1.5-0.4v4.8l-0.4,0V183.6z"/>
		<path id="XMLID_59_" class="st0" d="M420,180.6h-0.6c-0.5,0-1,0.2-1.4,0.5c-0.4,0.3-0.6,0.8-0.6,1.3v15.2c0,3-0.9,5.4-2.8,7.3
			c-1.9,1.8-4.4,2.8-7.6,2.8c-3.2,0-5.7-0.9-7.7-2.7c-2-1.8-2.9-4.2-2.9-7.2v-15.1c0-0.8-0.3-1.3-1-1.7c-0.3-0.2-0.7-0.2-1-0.2h-0.6
			v-0.4h7.8v0.4h-0.6c-0.6,0-1,0.2-1.4,0.5c-0.4,0.3-0.6,0.8-0.6,1.3v14.7c0,2.8,0.8,5,2.2,6.8c1.5,1.7,3.5,2.6,6,2.6
			c2.5,0,4.5-0.8,6.1-2.4s2.3-3.8,2.3-6.4v-15.2c0-0.5-0.2-1-0.6-1.3c-0.4-0.3-0.9-0.5-1.4-0.5h-0.6v-0.4h7.1V180.6z"/>
		<path id="XMLID_61_" class="st0" d="M458.3,183.9c2.5,2.5,3.8,5.7,3.8,9.7c0,4-1.3,7.3-3.8,9.7c-2.6,2.5-5.9,3.7-10,3.7h-13v-0.4
			h0.5c0.7,0,1.2-0.2,1.7-0.7c0.5-0.5,0.7-1,0.8-1.7v-21.5c0-0.6-0.3-1.1-0.8-1.6s-1.1-0.6-1.7-0.6h-0.5l0-0.4h13
			C452.4,180.2,455.8,181.4,458.3,183.9z M440.8,181.4V206h7.6c2.2,0,4.1-0.5,5.7-1.5c1.7-1,2.9-2.5,3.8-4.3c0.9-1.9,1.4-4,1.4-6.4
			c0-3.7-1-6.7-3-8.9c-2-2.3-4.6-3.4-7.9-3.4H440.8z"/>
		<path id="XMLID_64_" class="st0" d="M477.6,206.7c0.7,0,1.2-0.2,1.7-0.7c0.5-0.5,0.7-1,0.8-1.7V183c0-0.7-0.3-1.2-0.8-1.7
			c-0.5-0.5-1-0.7-1.7-0.7h-0.5v-0.4h8.4v0.4H485c-0.7,0-1.2,0.2-1.7,0.7c-0.5,0.5-0.7,1-0.8,1.7v21.3c0,0.7,0.2,1.2,0.7,1.7
			c0.5,0.5,1.1,0.7,1.7,0.7h0.5v0.4h-8.4v-0.4H477.6z"/>
		<path id="XMLID_66_" class="st0" d="M505.1,183.5c2.6-2.6,5.9-3.9,10-3.9c4.1,0,7.4,1.3,10,3.9c2.6,2.6,3.8,6,3.8,10.1
			c0,4.2-1.3,7.6-3.8,10.1c-2.6,2.6-5.9,3.9-10,3.9c-4.1,0-7.4-1.3-10-3.9c-2.6-2.6-3.8-6-3.8-10.1
			C501.2,189.5,502.5,186.1,505.1,183.5z M507.2,203c2,2.4,4.6,3.5,7.9,3.5c3.3,0,5.9-1.2,7.9-3.5c2-2.4,3-5.5,3-9.3
			c0-2.5-0.4-4.8-1.3-6.7c-0.9-1.9-2.2-3.5-3.8-4.5c-1.7-1.1-3.6-1.6-5.7-1.6c-3.3,0-5.9,1.2-7.9,3.5c-2,2.4-3,5.5-3,9.3
			S505.2,200.6,507.2,203z"/>
	</g>
	<g id="XMLID_15_">
		<path id="XMLID_69_" class="st0" d="M243.9,247.7h1.5l3.2,7.7l3.2-7.7h1.5l-3.7,9L254,267l8.2-19.5h1.7l-9.1,21.3h-1.4l-4.7-10.9
			l-4.7,10.9h-1.4l-9.1-21.3h1.6l8.2,19.5l4.4-10.4L243.9,247.7z"/>
		<path id="XMLID_71_" class="st0" d="M276.1,268.8v-21.3h1.5v21.3H276.1z"/>
		<path id="XMLID_73_" class="st0" d="M306.4,267.5v1.4h-14.2v-21.3h13.9v1.4h-12.4v8.4h10.8v1.3h-10.8v8.8H306.4z"/>
		<path id="XMLID_75_" class="st0" d="M321.2,250.4v18.4h-1.5v-21.3h1.2l14.9,18.7v-18.7h1.5v21.3h-1.4L321.2,250.4z"/>
	</g>
	<rect id="XMLID_18_" x="41.5" y="225.5" class="st0" width="485.5" height="2.4"/>
</g>
</svg>
